<svg width="116" height="16" viewBox="0 0 116 16" fill="none" xmlns="http://www.w3.org/2000/svg">
  <path opacity="0.7" d="M0 7.30022C3.58 6.19022 7.17 5.36017 10.75 4.50017C14.33 3.66017 17.92 2.96019 21.5 2.40019C23.29 2.12019 25.08 1.52011 26.88 1.07011C28.67 0.620115 30.46 0.570168 32.26 1.00017C34.05 1.41017 35.84 2.08022 37.64 3.05022C39.43 4.05022 41.22 5.29022 43.02 7.30022V8.70012C41.23 10.7101 39.44 11.9401 37.64 12.9501C35.85 13.9201 34.06 14.6002 32.26 15.0002C30.47 15.4302 28.68 15.3802 26.88 14.9302C25.09 14.4802 23.3 13.8801 21.5 13.6001C17.92 13.0401 14.33 12.3402 10.75 11.5002C7.17 10.6402 3.58 9.81012 0 8.70012V7.30022Z" fill="black"/>
  <path opacity="0.7" d="M116 8.70012C112.42 9.81012 108.83 10.6402 105.25 11.5002C101.67 12.3402 98.08 13.0401 94.5 13.6001C92.71 13.8801 90.92 14.4802 89.12 14.9302C87.33 15.3802 85.54 15.4302 83.74 15.0002C81.95 14.5902 80.16 13.9201 78.36 12.9501C76.57 11.9501 74.78 10.7101 72.98 8.70012V7.30022C74.77 5.29022 76.56 4.06022 78.36 3.05022C80.15 2.08022 81.94 1.40017 83.74 1.00017C85.53 0.570168 87.32 0.620115 89.12 1.07011C90.91 1.52011 92.7 2.12019 94.5 2.40019C98.08 2.96019 101.67 3.66017 105.25 4.50017C108.83 5.36017 112.42 6.19022 116 7.30022V8.70012Z" fill="black"/>
  <path opacity="0.7" d="M57.5 15C61.6421 15 65 11.6421 65 7.5C65 3.35786 61.6421 0 57.5 0C53.3579 0 50 3.35786 50 7.5C50 11.6421 53.3579 15 57.5 15Z" fill="#534741"/>
</svg>
