<svg width="38" height="39" viewBox="0 0 38 39" fill="none" xmlns="http://www.w3.org/2000/svg">
  <path d="M33.02 37.9401C29.51 35.6301 26.19 33.1601 22.85 30.7001C19.53 28.2201 16.3 25.6601 13.16 23.0201C11.59 21.6901 9.81 20.5701 8.12 19.3501C6.44 18.1301 5.04001 16.6601 3.95001 14.8901C2.86001 13.1301 1.93998 11.2101 1.22998 9.10006C0.53998 6.97006 0.0100098 4.70006 0.0100098 1.94006C0.0100098 1.45006 0.400015 1.06006 0.890015 1.06006C0.920015 1.06006 0.939971 1.06006 0.969971 1.06006C3.71997 1.30006 5.94 2.02006 8 2.90006C10.04 3.79006 11.87 4.87006 13.53 6.11006C15.19 7.35006 16.54 8.87006 17.61 10.6501C18.68 12.4301 19.64 14.3101 20.82 15.9801C23.18 19.3301 25.45 22.7701 27.63 26.3001C29.79 29.8401 31.97 33.3601 33.96 37.0601C34.14 37.3901 34.01 37.7901 33.69 37.9701C33.48 38.0901 33.22 38.0701 33.02 37.9401Z" fill="#534741"/>
  <path d="M2.03995 35.04C4.22995 31.4 6.59999 27.9299 8.94999 24.4499C11.32 20.9799 13.78 17.6099 16.32 14.3199C17.6 12.6799 18.66 10.8199 19.82 9.06995C20.98 7.31995 22.42 5.82995 24.15 4.64995C25.88 3.45995 27.78 2.43995 29.87 1.61995C31.99 0.81995 34.26 0.169949 37.03 0.0299488C37.51 0.00994882 37.92 0.379949 37.95 0.859949C37.95 0.889949 37.95 0.919949 37.95 0.949949C37.81 3.72995 37.16 5.99995 36.36 8.10995C35.54 10.2099 34.52 12.1099 33.33 13.8299C32.15 15.5599 30.6599 16.9999 28.9099 18.1599C27.1599 19.3199 25.2999 20.3899 23.6599 21.6599C20.3699 24.2099 17 26.6599 13.53 29.0299C10.05 31.3799 6.58998 33.7499 2.93998 35.9399C2.61998 36.1299 2.20999 36.0299 2.01999 35.7099C1.90999 35.5099 1.91995 35.25 2.03995 35.04Z" fill="#534741"/>
</svg>
